<svg xmlns="http://www.w3.org/2000/svg" width="112" height="56" fill="none"><path fill="#AEB93E" d="M67.292 29.114c-.83-.261-6.12 2.482-6.4 3.606-.282 1.124 9.844 21.566 10.817 21.996.973.43 4.86.382 5.319 0 .459-.382 10.975-20.863 10.632-21.996-.342-1.133-5.433-4.947-7.083-3.606-1.65 1.342-6.614 13.342-6.614 13.342s-5.841-13.08-6.671-13.342Z"></path><path fill="#AEB93E" fill-rule="evenodd" d="M99.232 44.531c-1.098-.02-2.097-.038-2.885-.038 0 .713.406 1.968 3.232 2.52 1.891.369 4.485-.33 6.195-.79.846-.229 1.476-.398 1.697-.351.665.142 3.803 4.183 2.662 6.37-1.141 2.187-14.12 4.992-19.158-.57-5.04-5.562-5.135-12.598-1.712-17.352S96.87 28.9 99.96 28.9c3.089 0 6.914.507 10.173 4.612 3.258 4.105.387 10.366-.856 10.696-1.785.474-6.446.389-10.045.323Zm-2.886-4.65c.27-1.077 1.433-3.047 3.899-3.232 3.15-.236 2.815 1.934 2.639 3.071l-.025.162h-6.513Z" clip-rule="evenodd"></path><path fill="#AEB93E" d="M42.507 16.645c-.5-.957-7.223-.066-7.597.559-.373.624.873 36.325 1.104 36.684.232.359 12.586.303 12.963 0 .378-.303.474-6.344 0-6.906-.473-.563-5.898-.56-5.898-.56s-.073-28.82-.572-29.777Z"></path><g filter="url(#a)"><path fill="#FFFA6B" fill-opacity="0.33" d="M37.598 19.093c1.223-.191 2.15-.764 2.069-1.28-.08-.515-1.138-.778-2.36-.587-1.224.191-2.15.764-2.07 1.28.081.515 1.138.778 2.36.587Z"></path></g><path fill="#AEB93E" d="M58.66 30.517c-1.105-.814-6.569-1.104-7.673 0-1.105 1.105-.698 21.857 0 23.077.697 1.221 6.568.93 7.673 0 1.104-.93 1.104-22.263 0-23.077ZM58.66 18.296c-1.105-.814-6.569-1.105-7.673 0-1.105 1.104-.698 6.874 0 8.094.697 1.221 6.568.93 7.673 0 1.104-.93 1.104-7.28 0-8.094Z"></path><g filter="url(#b)"><path fill="#FFFA6B" fill-opacity="0.33" d="M53.937 20.065c1.414-.178 2.507-.743 2.441-1.26-.065-.518-1.264-.792-2.678-.614-1.414.179-2.507.743-2.442 1.26.065.518 1.265.793 2.679.614Z"></path></g><g filter="url(#c)"><path fill="#FFFA6B" fill-opacity="0.33" d="M64.426 33.084c1.324-.528 2.24-1.348 2.047-1.833-.193-.484-1.423-.449-2.747.079-1.324.528-2.24 1.349-2.047 1.833.193.485 1.423.45 2.747-.078Z"></path></g><g filter="url(#d)"><path fill="#FFFA6B" fill-opacity="0.33" d="M81.46 32.372c.902-1.104 1.306-2.266.902-2.596-.404-.33-1.463.297-2.365 1.4-.902 1.104-1.305 2.266-.901 2.597.403.33 1.462-.298 2.364-1.401Z"></path></g><g filter="url(#e)"><path fill="#FFFA6B" fill-opacity="0.33" d="M94.656 33.421c1.804-1.151 2.95-2.58 2.56-3.191-.39-.611-2.169-.173-3.973.978-1.803 1.152-2.95 2.58-2.56 3.191.39.611 2.17.173 3.973-.978Z"></path></g><g filter="url(#f)"><path fill="#FFFA6B" fill-opacity="0.33" d="M53.977 32.324c1.41-.217 2.487-.81 2.407-1.326-.079-.515-1.285-.758-2.694-.54-1.408.216-2.486.81-2.407 1.325.08.516 1.286.758 2.694.541Z"></path></g><path stroke="#B47E54" stroke-linecap="round" stroke-width="2.289" d="M15.293 9.588c1.002 1.863 1.609 3.238 1.465 5.681"></path><path fill="#AEB93E" d="M16.541 55.417c-22.573 0-21.34-40.065 0-40.065 21.342 0 22.574 40.065 0 40.065Z"></path><path fill="#000" fill-opacity="0.17" d="M32.987 34.531c0 11.535-4.037 20.886-16.446 20.886-5.239 0-8.986-1.667-11.566-4.46 3.245 1.431 7.76 2.767 12.719 2.322 4.96-.446 12.473-2.323 15.293-18.748Z"></path><path fill="#AEB93E" d="M29.187 1.47c-.69-1.232-5.707-1.476-8.535 0-2.827 1.476-4.14 4.977-3.938 8.085 1.647.489 3.724.978 7.2-.48 3.476-1.46 5.73-5.818 5.273-7.605Z"></path><path fill="#8F9838" d="M26.942 2.683c.23-.621-5.117 4.356-9.79 6.006 0 0 3.512-.616 5.526-2.05 2.014-1.433 3.86-2.857 4.264-3.956Z"></path><path fill="#2D2D2D" d="M10.377 27.439c3.408 0 3.408 5.801 0 5.801s-3.408-5.802 0-5.802ZM22.705 27.439c3.408 0 3.408 5.801 0 5.801-3.322 0-3.43-5.802 0-5.802Z"></path><path stroke="#2D2D2D" stroke-linecap="round" stroke-width="0.954" d="M14.669 33.078c.917 1.407 3.15 1.315 3.985-.103"></path><path fill="#D9D9D9" d="M11.692 29.636a.722.722 0 1 0 0-1.444.722.722 0 0 0 0 1.444ZM24.035 29.636a.722.722 0 1 0 0-1.444.722.722 0 0 0 0 1.444Z"></path><defs><filter id="a" width="6.462" height="4.014" x="34.221" y="16.153" color-interpolation-filters="sRGB" filterUnits="userSpaceOnUse"><feFlood flood-opacity="0" result="BackgroundImageFix"></feFlood><feBlend in="SourceGraphic" in2="BackgroundImageFix" result="shape"></feBlend><feGaussianBlur result="effect1_foregroundBlur_275_66" stdDeviation="0.506"></feGaussianBlur></filter><filter id="b" width="7.148" height="4.006" x="50.244" y="17.125" color-interpolation-filters="sRGB" filterUnits="userSpaceOnUse"><feFlood flood-opacity="0" result="BackgroundImageFix"></feFlood><feBlend in="SourceGraphic" in2="BackgroundImageFix" result="shape"></feBlend><feGaussianBlur result="effect1_foregroundBlur_275_66" stdDeviation="0.506"></feGaussianBlur></filter><filter id="c" width="6.868" height="4.617" x="60.642" y="29.899" color-interpolation-filters="sRGB" filterUnits="userSpaceOnUse"><feFlood flood-opacity="0" result="BackgroundImageFix"></feFlood><feBlend in="SourceGraphic" in2="BackgroundImageFix" result="shape"></feBlend><feGaussianBlur result="effect1_foregroundBlur_275_66" stdDeviation="0.506"></feGaussianBlur></filter><filter id="d" width="5.602" height="6.194" x="77.927" y="28.677" color-interpolation-filters="sRGB" filterUnits="userSpaceOnUse"><feFlood flood-opacity="0" result="BackgroundImageFix"></feFlood><feBlend in="SourceGraphic" in2="BackgroundImageFix" result="shape"></feBlend><feGaussianBlur result="effect1_foregroundBlur_275_66" stdDeviation="0.506"></feGaussianBlur></filter><filter id="e" width="8.707" height="6.743" x="89.596" y="28.943" color-interpolation-filters="sRGB" filterUnits="userSpaceOnUse"><feFlood flood-opacity="0" result="BackgroundImageFix"></feFlood><feBlend in="SourceGraphic" in2="BackgroundImageFix" result="shape"></feBlend><feGaussianBlur result="effect1_foregroundBlur_275_66" stdDeviation="0.506"></feGaussianBlur></filter><filter id="f" width="7.132" height="4.048" x="50.268" y="29.367" color-interpolation-filters="sRGB" filterUnits="userSpaceOnUse"><feFlood flood-opacity="0" result="BackgroundImageFix"></feFlood><feBlend in="SourceGraphic" in2="BackgroundImageFix" result="shape"></feBlend><feGaussianBlur result="effect1_foregroundBlur_275_66" stdDeviation="0.506"></feGaussianBlur></filter></defs></svg>