<svg width="48" height="48" viewBox="0 0 52 52" fill="none" xmlns="http://www.w3.org/2000/svg"><g clip-path="url(#clip0_1824_55)"><rect width="52" height="52" rx="26" fill="#253612"></rect><path d="M22.1953 12.4453C23.8677 14.3436 24.9468 15.7801 25.4418 18.6644" stroke="#B47E54" stroke-width="2.73746" stroke-linecap="round"></path><path d="M36.0838 65.4775C9.79666 71.5984 0.367742 24.6086 25.2201 18.8218C50.0726 13.035 62.3709 59.3567 36.0838 65.4775Z" fill="#AEB93E"></path><path d="M49.5669 36.6962C52.6946 50.1289 50.5283 62.1133 36.078 65.478C29.9772 66.8986 25.1621 65.9733 21.399 63.4193C25.5664 64.2071 31.1859 64.5379 36.8407 62.6748C42.4955 60.8116 50.7364 56.5882 49.5669 36.6962Z" fill="black" fill-opacity="0.17"></path><path d="M36.1768 -0.776715C35.0394 -2.02475 29.1307 -0.94848 26.2378 1.53753C23.3452 4.02349 22.7647 8.45598 23.8434 12.0203C25.8939 12.1434 28.4453 12.1496 32.0979 9.50851C35.7503 6.86743 37.1925 1.18029 36.1768 -0.776715Z" fill="#AEB93E"></path><path d="M33.8919 1.24249C33.9897 0.456609 29.1134 7.70203 24.1195 10.8909C24.1195 10.8909 28.0415 9.22158 29.9985 7.00571C31.9553 4.79011 33.7188 2.63147 33.8919 1.24249Z" fill="#8F9838"></path><g filter="url(#filter0_f_1824_55)"><path d="M41.4185 42.5343C42.951 42.1775 43.9041 40.6459 43.5472 39.1134C43.1904 37.581 41.6588 36.6279 40.1264 36.9848C38.5939 37.3416 37.6408 38.8732 37.9977 40.4056C38.3545 41.9381 39.8861 42.8912 41.4185 42.5343Z" fill="#FCC1C1"></path></g><g filter="url(#filter1_f_1824_55)"><path d="M21.0748 46.9523C22.6073 46.5955 23.5603 45.0639 23.2035 43.5314C22.8467 41.9989 21.3151 41.0459 19.7826 41.4027C18.2501 41.7596 17.2971 43.2911 17.6539 44.8236C18.0107 46.3561 19.5423 47.3091 21.0748 46.9523Z" fill="#FCC1C1"></path></g><path d="M21.32 34.5697C25.2881 33.6457 26.8614 40.4022 22.8932 41.3261C18.9249 42.2501 17.3517 35.4937 21.32 34.5697Z" fill="#2D2D2D"></path><path d="M35.6792 31.2279C39.6476 30.3039 41.2208 37.0604 37.2524 37.9844C33.2843 38.9083 31.7111 32.1519 35.6792 31.2279Z" fill="#2D2D2D"></path><path d="M27.8485 39.9734C28.6125 40.6384 29.3719 40.8326 30.3614 40.6161C31.4276 40.3827 32.0923 39.799 32.4614 38.7719" stroke="#2D2D2D" stroke-width="1.14061" stroke-linecap="round"></path><path d="M23.4435 36.7732C23.908 36.6651 24.1968 36.2009 24.0887 35.7364C23.9805 35.272 23.5163 34.9832 23.0519 35.0913C22.5874 35.1994 22.2986 35.6636 22.4068 36.1281C22.5149 36.5925 22.9791 36.8813 23.4435 36.7732Z" fill="#D9D9D9"></path><path d="M37.8185 33.4265C38.283 33.3184 38.5718 32.8542 38.4637 32.3898C38.3555 31.9253 37.8913 31.6365 37.4269 31.7446C36.9624 31.8528 36.6736 32.3169 36.7818 32.7814C36.8899 33.2458 37.3541 33.5347 37.8185 33.4265Z" fill="#D9D9D9"></path></g><defs><filter id="filter0_f_1824_55" x="34.2947" y="33.283" width="12.9574" height="12.9535" filterUnits="userSpaceOnUse" color-interpolation-filters="sRGB"><feFlood flood-opacity="0" result="BackgroundImageFix"></feFlood><feBlend mode="normal" in="SourceGraphic" in2="BackgroundImageFix" result="shape"></feBlend><feGaussianBlur stdDeviation="1.81357" result="effect1_foregroundBlur_1824_55"></feGaussianBlur></filter><filter id="filter1_f_1824_55" x="13.951" y="37.701" width="12.9574" height="12.9535" filterUnits="userSpaceOnUse" color-interpolation-filters="sRGB"><feFlood flood-opacity="0" result="BackgroundImageFix"></feFlood><feBlend mode="normal" in="SourceGraphic" in2="BackgroundImageFix" result="shape"></feBlend><feGaussianBlur stdDeviation="1.81357" result="effect1_foregroundBlur_1824_55"></feGaussianBlur></filter><clipPath id="clip0_1824_55"><rect width="52" height="52" rx="26" fill="white"></rect></clipPath></defs></svg>